<?xml version="1.0" encoding="UTF-8" standalone="no"?>
<!DOCTYPE svg PUBLIC "-//W3C//DTD SVG 1.1//EN"
 "http://www.w3.org/Graphics/SVG/1.1/DTD/svg11.dtd">
<!-- Generated by graphviz version 8.0.5 (20230506.1012)
 -->
<!-- Title: snakemake_dag Pages: 1 -->
<svg width="940pt" height="990pt"
 viewBox="0.00 0.00 939.81 990.25" xmlns="http://www.w3.org/2000/svg" xmlns:xlink="http://www.w3.org/1999/xlink">
<g id="graph0" class="graph" transform="scale(1 1) rotate(0) translate(4 986.25)">
<title>snakemake_dag</title>
<polygon fill="white" stroke="none" points="-4,4 -4,-986.25 935.81,-986.25 935.81,4 -4,4"/>
<!-- 0 -->
<g id="node1" class="node">
<title>0</title>
<path fill="none" stroke="#d8d356" stroke-width="2" d="M148.38,-36C148.38,-36 118.38,-36 118.38,-36 112.38,-36 106.38,-30 106.38,-24 106.38,-24 106.38,-12 106.38,-12 106.38,-6 112.38,0 118.38,0 118.38,0 148.38,0 148.38,0 154.38,0 160.38,-6 160.38,-12 160.38,-12 160.38,-24 160.38,-24 160.38,-30 154.38,-36 148.38,-36"/>
<text text-anchor="middle" x="133.38" y="-14.88" font-family="sans" font-size="10.00">all</text>
</g>
<!-- 1 -->
<g id="node2" class="node">
<title>1</title>
<path fill="none" stroke="#d8bc56" stroke-width="2" d="M344.62,-108C344.62,-108 264.12,-108 264.12,-108 258.12,-108 252.12,-102 252.12,-96 252.12,-96 252.12,-84 252.12,-84 252.12,-78 258.12,-72 264.12,-72 264.12,-72 344.62,-72 344.62,-72 350.62,-72 356.62,-78 356.62,-84 356.62,-84 356.62,-96 356.62,-96 356.62,-102 350.62,-108 344.62,-108"/>
<text text-anchor="middle" x="304.38" y="-86.88" font-family="sans" font-size="10.00">annotate_variants</text>
</g>
<!-- 1&#45;&gt;0 -->
<g id="edge1" class="edge">
<title>1&#45;&gt;0</title>
<path fill="none" stroke="grey" stroke-width="2" d="M260.78,-71.15C233.79,-60.1 199.39,-46.02 173.14,-35.28"/>
<polygon fill="grey" stroke="grey" stroke-width="2" points="173.93,-32 163.35,-31.45 171.27,-38.48 173.93,-32"/>
</g>
<!-- 2 -->
<g id="node3" class="node">
<title>2</title>
<path fill="none" stroke="#d85656" stroke-width="2" d="M510,-180C510,-180 446.75,-180 446.75,-180 440.75,-180 434.75,-174 434.75,-168 434.75,-168 434.75,-156 434.75,-156 434.75,-150 440.75,-144 446.75,-144 446.75,-144 510,-144 510,-144 516,-144 522,-150 522,-156 522,-156 522,-168 522,-168 522,-174 516,-180 510,-180"/>
<text text-anchor="middle" x="478.38" y="-158.88" font-family="sans" font-size="10.00">merge_filtered</text>
</g>
<!-- 2&#45;&gt;1 -->
<g id="edge4" class="edge">
<title>2&#45;&gt;1</title>
<path fill="none" stroke="grey" stroke-width="2" d="M434.02,-143.15C411.81,-134.22 384.68,-123.31 360.99,-113.77"/>
<polygon fill="grey" stroke="grey" stroke-width="2" points="361.54,-110.42 350.95,-109.93 358.93,-116.91 361.54,-110.42"/>
</g>
<!-- 3 -->
<g id="node4" class="node">
<title>3</title>
<path fill="none" stroke="#56b9d8" stroke-width="2" d="M828.75,-252C828.75,-252 782,-252 782,-252 776,-252 770,-246 770,-240 770,-240 770,-228 770,-228 770,-222 776,-216 782,-216 782,-216 828.75,-216 828.75,-216 834.75,-216 840.75,-222 840.75,-228 840.75,-228 840.75,-240 840.75,-240 840.75,-246 834.75,-252 828.75,-252"/>
<text text-anchor="middle" x="805.38" y="-230.88" font-family="sans" font-size="10.00">ApplyVQSR</text>
</g>
<!-- 3&#45;&gt;2 -->
<g id="edge6" class="edge">
<title>3&#45;&gt;2</title>
<path fill="none" stroke="grey" stroke-width="2" d="M769.13,-225.24C712.5,-213.12 602.57,-189.59 535.3,-175.19"/>
<polygon fill="grey" stroke="grey" stroke-width="2" points="535.36,-171.19 524.85,-172.52 533.9,-178.04 535.36,-171.19"/>
</g>
<!-- 4 -->
<g id="node5" class="node">
<title>4</title>
<path fill="none" stroke="#56d0d8" stroke-width="2" d="M828.25,-396C828.25,-396 766.5,-396 766.5,-396 760.5,-396 754.5,-390 754.5,-384 754.5,-384 754.5,-372 754.5,-372 754.5,-366 760.5,-360 766.5,-360 766.5,-360 828.25,-360 828.25,-360 834.25,-360 840.25,-366 840.25,-372 840.25,-372 840.25,-384 840.25,-384 840.25,-390 834.25,-396 828.25,-396"/>
<text text-anchor="middle" x="797.38" y="-381.25" font-family="sans" font-size="10.00">SelectVariants</text>
<text text-anchor="middle" x="797.38" y="-368.5" font-family="sans" font-size="10.00">v: SNP</text>
</g>
<!-- 4&#45;&gt;3 -->
<g id="edge8" class="edge">
<title>4&#45;&gt;3</title>
<path fill="none" stroke="grey" stroke-width="2" d="M790.88,-359.19C785.18,-341.17 778.48,-312.54 783.38,-288 784.95,-280.11 787.71,-271.93 790.77,-264.42"/>
<polygon fill="grey" stroke="grey" stroke-width="2" points="794.16,-265.16 795.02,-254.6 787.76,-262.32 794.16,-265.16"/>
</g>
<!-- 19 -->
<g id="node20" class="node">
<title>19</title>
<path fill="none" stroke="#d8a456" stroke-width="2" d="M890.25,-324C890.25,-324 804.5,-324 804.5,-324 798.5,-324 792.5,-318 792.5,-312 792.5,-312 792.5,-300 792.5,-300 792.5,-294 798.5,-288 804.5,-288 804.5,-288 890.25,-288 890.25,-288 896.25,-288 902.25,-294 902.25,-300 902.25,-300 902.25,-312 902.25,-312 902.25,-318 896.25,-324 890.25,-324"/>
<text text-anchor="middle" x="847.38" y="-302.88" font-family="sans" font-size="10.00">VariantRecalibrator</text>
</g>
<!-- 4&#45;&gt;19 -->
<g id="edge39" class="edge">
<title>4&#45;&gt;19</title>
<path fill="none" stroke="grey" stroke-width="2" d="M809.99,-359.34C815.16,-352.1 821.28,-343.53 827.05,-335.45"/>
<polygon fill="grey" stroke="grey" stroke-width="2" points="830.62,-337.07 833.59,-326.9 824.93,-333 830.62,-337.07"/>
</g>
<!-- 5 -->
<g id="node6" class="node">
<title>5</title>
<path fill="none" stroke="#c6d856" stroke-width="2" d="M702.12,-468C702.12,-468 630.62,-468 630.62,-468 624.62,-468 618.62,-462 618.62,-456 618.62,-456 618.62,-444 618.62,-444 618.62,-438 624.62,-432 630.62,-432 630.62,-432 702.12,-432 702.12,-432 708.12,-432 714.12,-438 714.12,-444 714.12,-444 714.12,-456 714.12,-456 714.12,-462 708.12,-468 702.12,-468"/>
<text text-anchor="middle" x="666.38" y="-446.88" font-family="sans" font-size="10.00">GenotypeGVCFs</text>
</g>
<!-- 5&#45;&gt;4 -->
<g id="edge11" class="edge">
<title>5&#45;&gt;4</title>
<path fill="none" stroke="grey" stroke-width="2" d="M699.77,-431.15C715.94,-422.52 735.57,-412.02 752.98,-402.72"/>
<polygon fill="grey" stroke="grey" stroke-width="2" points="754.87,-405.61 762.04,-397.81 751.57,-399.44 754.87,-405.61"/>
</g>
<!-- 21 -->
<g id="node22" class="node">
<title>21</title>
<path fill="none" stroke="#56d0d8" stroke-width="2" d="M432.25,-396C432.25,-396 370.5,-396 370.5,-396 364.5,-396 358.5,-390 358.5,-384 358.5,-384 358.5,-372 358.5,-372 358.5,-366 364.5,-360 370.5,-360 370.5,-360 432.25,-360 432.25,-360 438.25,-360 444.25,-366 444.25,-372 444.25,-372 444.25,-384 444.25,-384 444.25,-390 438.25,-396 432.25,-396"/>
<text text-anchor="middle" x="401.38" y="-381.25" font-family="sans" font-size="10.00">SelectVariants</text>
<text text-anchor="middle" x="401.38" y="-368.5" font-family="sans" font-size="10.00">v: INDEL</text>
</g>
<!-- 5&#45;&gt;21 -->
<g id="edge43" class="edge">
<title>5&#45;&gt;21</title>
<path fill="none" stroke="grey" stroke-width="2" d="M617.77,-436.16C572.47,-424.19 504.93,-406.35 457.38,-393.79"/>
<polygon fill="grey" stroke="grey" stroke-width="2" points="457.4,-389.65 446.84,-390.48 455.62,-396.42 457.4,-389.65"/>
</g>
<!-- 6 -->
<g id="node7" class="node">
<title>6</title>
<path fill="none" stroke="#d86e56" stroke-width="2" d="M698,-540C698,-540 610.75,-540 610.75,-540 604.75,-540 598.75,-534 598.75,-528 598.75,-528 598.75,-516 598.75,-516 598.75,-510 604.75,-504 610.75,-504 610.75,-504 698,-504 698,-504 704,-504 710,-510 710,-516 710,-516 710,-528 710,-528 710,-534 704,-540 698,-540"/>
<text text-anchor="middle" x="654.38" y="-518.88" font-family="sans" font-size="10.00">GenomicsDBImport</text>
</g>
<!-- 6&#45;&gt;5 -->
<g id="edge13" class="edge">
<title>6&#45;&gt;5</title>
<path fill="none" stroke="grey" stroke-width="2" d="M657.4,-503.34C658.53,-496.75 659.85,-489.08 661.12,-481.67"/>
<polygon fill="grey" stroke="grey" stroke-width="2" points="665.07,-481.35 663.31,-470.9 658.17,-480.17 665.07,-481.35"/>
</g>
<!-- 7 -->
<g id="node8" class="node">
<title>7</title>
<path fill="none" stroke="#78d856" stroke-width="2" d="M585.75,-612C585.75,-612 515,-612 515,-612 509,-612 503,-606 503,-600 503,-600 503,-588 503,-588 503,-582 509,-576 515,-576 515,-576 585.75,-576 585.75,-576 591.75,-576 597.75,-582 597.75,-588 597.75,-588 597.75,-600 597.75,-600 597.75,-606 591.75,-612 585.75,-612"/>
<text text-anchor="middle" x="550.38" y="-590.88" font-family="sans" font-size="10.00">HaplotypeCaller</text>
</g>
<!-- 7&#45;&gt;6 -->
<g id="edge15" class="edge">
<title>7&#45;&gt;6</title>
<path fill="none" stroke="grey" stroke-width="2" d="M576.89,-575.15C589.11,-566.93 603.83,-557.02 617.15,-548.06"/>
<polygon fill="grey" stroke="grey" stroke-width="2" points="619.57,-550.3 625.91,-541.81 615.66,-544.49 619.57,-550.3"/>
</g>
<!-- 8 -->
<g id="node9" class="node">
<title>8</title>
<path fill="none" stroke="#56a2d8" stroke-width="2" d="M375.75,-684C375.75,-684 329,-684 329,-684 323,-684 317,-678 317,-672 317,-672 317,-660 317,-660 317,-654 323,-648 329,-648 329,-648 375.75,-648 375.75,-648 381.75,-648 387.75,-654 387.75,-660 387.75,-660 387.75,-672 387.75,-672 387.75,-678 381.75,-684 375.75,-684"/>
<text text-anchor="middle" x="352.38" y="-662.88" font-family="sans" font-size="10.00">ApplyBQSR</text>
</g>
<!-- 8&#45;&gt;7 -->
<g id="edge17" class="edge">
<title>8&#45;&gt;7</title>
<path fill="none" stroke="grey" stroke-width="2" d="M388.69,-652.16C417.13,-642.11 457.29,-627.91 490.47,-616.18"/>
<polygon fill="grey" stroke="grey" stroke-width="2" points="492.08,-619.61 500.34,-612.98 489.75,-613.01 492.08,-619.61"/>
</g>
<!-- 26 -->
<g id="node27" class="node">
<title>26</title>
<path fill="none" stroke="#5673d8" stroke-width="2" d="M163.5,-612C163.5,-612 97.25,-612 97.25,-612 91.25,-612 85.25,-606 85.25,-600 85.25,-600 85.25,-588 85.25,-588 85.25,-582 91.25,-576 97.25,-576 97.25,-576 163.5,-576 163.5,-576 169.5,-576 175.5,-582 175.5,-588 175.5,-588 175.5,-600 175.5,-600 175.5,-606 169.5,-612 163.5,-612"/>
<text text-anchor="middle" x="130.38" y="-590.88" font-family="sans" font-size="10.00">samtools_stats</text>
</g>
<!-- 8&#45;&gt;26 -->
<g id="edge51" class="edge">
<title>8&#45;&gt;26</title>
<path fill="none" stroke="grey" stroke-width="2" d="M316.21,-653.6C281.66,-642.7 228.99,-626.1 188.54,-613.34"/>
<polygon fill="grey" stroke="grey" stroke-width="2" points="188.73,-609.1 178.14,-609.43 186.63,-615.78 188.73,-609.1"/>
</g>
<!-- 9 -->
<g id="node10" class="node">
<title>9</title>
<path fill="none" stroke="#56d863" stroke-width="2" d="M361.88,-828C361.88,-828 312.88,-828 312.88,-828 306.88,-828 300.88,-822 300.88,-816 300.88,-816 300.88,-804 300.88,-804 300.88,-798 306.88,-792 312.88,-792 312.88,-792 361.88,-792 361.88,-792 367.88,-792 373.88,-798 373.88,-804 373.88,-804 373.88,-816 373.88,-816 373.88,-822 367.88,-828 361.88,-828"/>
<text text-anchor="middle" x="337.38" y="-806.88" font-family="sans" font-size="10.00">bwa_mem2</text>
</g>
<!-- 9&#45;&gt;8 -->
<g id="edge19" class="edge">
<title>9&#45;&gt;8</title>
<path fill="none" stroke="grey" stroke-width="2" d="M339.27,-791.02C341.75,-767.54 346.13,-726.11 349.14,-697.64"/>
<polygon fill="grey" stroke="grey" stroke-width="2" points="352.92,-698.15 350.49,-687.84 345.96,-697.42 352.92,-698.15"/>
</g>
<!-- 13 -->
<g id="node14" class="node">
<title>13</title>
<path fill="none" stroke="#56d8c9" stroke-width="2" d="M312,-756C312,-756 236.75,-756 236.75,-756 230.75,-756 224.75,-750 224.75,-744 224.75,-744 224.75,-732 224.75,-732 224.75,-726 230.75,-720 236.75,-720 236.75,-720 312,-720 312,-720 318,-720 324,-726 324,-732 324,-732 324,-744 324,-744 324,-750 318,-756 312,-756"/>
<text text-anchor="middle" x="274.38" y="-734.88" font-family="sans" font-size="10.00">BaseRecalibrator</text>
</g>
<!-- 9&#45;&gt;13 -->
<g id="edge26" class="edge">
<title>9&#45;&gt;13</title>
<path fill="none" stroke="grey" stroke-width="2" d="M321.48,-791.34C314.67,-783.77 306.55,-774.75 298.99,-766.35"/>
<polygon fill="grey" stroke="grey" stroke-width="2" points="301.78,-763.99 292.49,-758.9 296.57,-768.68 301.78,-763.99"/>
</g>
<!-- 10 -->
<g id="node11" class="node">
<title>10</title>
<path fill="none" stroke="#97d856" stroke-width="2" stroke-dasharray="5,2" d="M82.75,-910.25C82.75,-910.25 12,-910.25 12,-910.25 6,-910.25 0,-904.25 0,-898.25 0,-898.25 0,-876 0,-876 0,-870 6,-864 12,-864 12,-864 82.75,-864 82.75,-864 88.75,-864 94.75,-870 94.75,-876 94.75,-876 94.75,-898.25 94.75,-898.25 94.75,-904.25 88.75,-910.25 82.75,-910.25"/>
<text text-anchor="middle" x="47.38" y="-896.75" font-family="sans" font-size="10.00">fastp_se</text>
<text text-anchor="middle" x="47.38" y="-884" font-family="sans" font-size="10.00">s: SRR24443168</text>
<text text-anchor="middle" x="47.38" y="-871.25" font-family="sans" font-size="10.00">u: </text>
</g>
<!-- 10&#45;&gt;9 -->
<g id="edge22" class="edge">
<title>10&#45;&gt;9</title>
<path fill="none" stroke="grey" stroke-width="2" d="M95.59,-873.64C148.82,-859.85 234.08,-837.76 287.83,-823.83"/>
<polygon fill="grey" stroke="grey" stroke-width="2" points="289.32,-826.55 298.12,-820.65 287.56,-819.77 289.32,-826.55"/>
</g>
<!-- 24 -->
<g id="node25" class="node">
<title>24</title>
<path fill="none" stroke="#afd856" stroke-width="2" stroke-dasharray="5,2" d="M86.75,-828C86.75,-828 28,-828 28,-828 22,-828 16,-822 16,-816 16,-816 16,-804 16,-804 16,-798 22,-792 28,-792 28,-792 86.75,-792 86.75,-792 92.75,-792 98.75,-798 98.75,-804 98.75,-804 98.75,-816 98.75,-816 98.75,-822 92.75,-828 86.75,-828"/>
<text text-anchor="middle" x="57.38" y="-806.88" font-family="sans" font-size="10.00">fastp_multiqc</text>
</g>
<!-- 10&#45;&gt;24 -->
<g id="edge47" class="edge">
<title>10&#45;&gt;24</title>
<path fill="none" stroke="grey" stroke-width="2" d="M50.43,-863.18C51.34,-856.36 52.35,-848.78 53.31,-841.56"/>
<polygon fill="grey" stroke="grey" stroke-width="2" points="57.15,-842.18 55.01,-831.8 50.22,-841.25 57.15,-842.18"/>
</g>
<!-- 11 -->
<g id="node12" class="node">
<title>11</title>
<path fill="none" stroke="#61d856" stroke-width="2" d="M644.12,-982.25C644.12,-982.25 566.62,-982.25 566.62,-982.25 560.62,-982.25 554.62,-976.25 554.62,-970.25 554.62,-970.25 554.62,-958.25 554.62,-958.25 554.62,-952.25 560.62,-946.25 566.62,-946.25 566.62,-946.25 644.12,-946.25 644.12,-946.25 650.12,-946.25 656.12,-952.25 656.12,-958.25 656.12,-958.25 656.12,-970.25 656.12,-970.25 656.12,-976.25 650.12,-982.25 644.12,-982.25"/>
<text text-anchor="middle" x="605.38" y="-961.12" font-family="sans" font-size="10.00">get_GATK_bundle</text>
</g>
<!-- 11&#45;&gt;3 -->
<g id="edge10" class="edge">
<title>11&#45;&gt;3</title>
<path fill="none" stroke="grey" stroke-width="2" d="M656.87,-961.85C748.51,-956.32 930.38,-930.32 930.38,-811 930.38,-811 930.38,-811 930.38,-377 930.38,-336.55 936.13,-319.98 911.38,-288 897.02,-269.45 874.43,-256.92 853.79,-248.71"/>
<polygon fill="grey" stroke="grey" stroke-width="2" points="854.2,-245.41 843.61,-245.26 851.8,-251.98 854.2,-245.41"/>
</g>
<!-- 11&#45;&gt;4 -->
<g id="edge12" class="edge">
<title>11&#45;&gt;4</title>
<path fill="none" stroke="grey" stroke-width="2" d="M656.84,-962.08C698.52,-958.32 755.8,-946.3 790.38,-910.25 821.79,-877.5 814.38,-856.38 814.38,-811 814.38,-811 814.38,-811 814.38,-521 814.38,-482.38 808.1,-438.27 803.17,-409.59"/>
<polygon fill="grey" stroke="grey" stroke-width="2" points="806.1,-408.08 800.9,-398.85 799.21,-409.31 806.1,-408.08"/>
</g>
<!-- 11&#45;&gt;5 -->
<g id="edge14" class="edge">
<title>11&#45;&gt;5</title>
<path fill="none" stroke="grey" stroke-width="2" d="M642.94,-945.43C658.76,-936.54 676.45,-924.6 689.38,-910.25 722.3,-873.7 738.38,-860.19 738.38,-811 738.38,-811 738.38,-811 738.38,-593 738.38,-552.55 738.69,-539.54 719.38,-504 714.16,-494.41 706.67,-485.41 698.96,-477.65"/>
<polygon fill="grey" stroke="grey" stroke-width="2" points="701.27,-475.13 691.58,-470.84 696.47,-480.24 701.27,-475.13"/>
</g>
<!-- 11&#45;&gt;7 -->
<g id="edge18" class="edge">
<title>11&#45;&gt;7</title>
<path fill="none" stroke="grey" stroke-width="2" d="M618.5,-945.39C625.27,-935.47 633.18,-922.64 638.38,-910.25 655.93,-868.4 662.38,-856.38 662.38,-811 662.38,-811 662.38,-811 662.38,-737 662.38,-687.99 620.73,-645.95 588.23,-620.6"/>
<polygon fill="grey" stroke="grey" stroke-width="2" points="590.16,-617.17 580.06,-613.97 585.96,-622.77 590.16,-617.17"/>
</g>
<!-- 11&#45;&gt;8 -->
<g id="edge20" class="edge">
<title>11&#45;&gt;8</title>
<path fill="none" stroke="grey" stroke-width="2" d="M558.9,-945.32C538.68,-936.38 515.33,-924.43 496.38,-910.25 493.9,-908.4 423.05,-830.6 421.38,-828 394.05,-785.57 373.15,-730.48 361.84,-696.99"/>
<polygon fill="grey" stroke="grey" stroke-width="2" points="364.3,-695.27 357.84,-686.87 357.65,-697.46 364.3,-695.27"/>
</g>
<!-- 11&#45;&gt;9 -->
<g id="edge23" class="edge">
<title>11&#45;&gt;9</title>
<path fill="none" stroke="grey" stroke-width="2" d="M553.64,-960.92C481.74,-956.48 357.27,-944.01 329.38,-910.25 313.62,-891.18 317.98,-862.41 324.89,-840.75"/>
<polygon fill="grey" stroke="grey" stroke-width="2" points="328.15,-841.24 328.24,-830.64 321.56,-838.87 328.15,-841.24"/>
</g>
<!-- 12 -->
<g id="node13" class="node">
<title>12</title>
<path fill="none" stroke="#56d8a9" stroke-width="2" d="M432,-905.12C432,-905.12 350.75,-905.12 350.75,-905.12 344.75,-905.12 338.75,-899.12 338.75,-893.12 338.75,-893.12 338.75,-881.12 338.75,-881.12 338.75,-875.12 344.75,-869.12 350.75,-869.12 350.75,-869.12 432,-869.12 432,-869.12 438,-869.12 444,-875.12 444,-881.12 444,-881.12 444,-893.12 444,-893.12 444,-899.12 438,-905.12 432,-905.12"/>
<text text-anchor="middle" x="391.38" y="-884" font-family="sans" font-size="10.00">bwa_mem2_index</text>
</g>
<!-- 11&#45;&gt;12 -->
<g id="edge25" class="edge">
<title>11&#45;&gt;12</title>
<path fill="none" stroke="grey" stroke-width="2" d="M554.12,-945.26C524.32,-934.79 486.51,-921.52 454.84,-910.4"/>
<polygon fill="grey" stroke="grey" stroke-width="2" points="455.18,-907.11 444.59,-907.1 452.86,-913.72 455.18,-907.11"/>
</g>
<!-- 11&#45;&gt;13 -->
<g id="edge27" class="edge">
<title>11&#45;&gt;13</title>
<path fill="none" stroke="grey" stroke-width="2" d="M553.84,-960.23C480.14,-954.88 349.72,-941.23 315.38,-910.25 275.95,-874.69 271.15,-808.56 272.14,-769.71"/>
<polygon fill="grey" stroke="grey" stroke-width="2" points="275.76,-769.88 272.71,-759.74 268.77,-769.57 275.76,-769.88"/>
</g>
<!-- 14 -->
<g id="node15" class="node">
<title>14</title>
<path fill="none" stroke="#78d856" stroke-width="2" d="M698.75,-612C698.75,-612 628,-612 628,-612 622,-612 616,-606 616,-600 616,-600 616,-588 616,-588 616,-582 622,-576 628,-576 628,-576 698.75,-576 698.75,-576 704.75,-576 710.75,-582 710.75,-588 710.75,-588 710.75,-600 710.75,-600 710.75,-606 704.75,-612 698.75,-612"/>
<text text-anchor="middle" x="663.38" y="-590.88" font-family="sans" font-size="10.00">HaplotypeCaller</text>
</g>
<!-- 11&#45;&gt;14 -->
<g id="edge29" class="edge">
<title>11&#45;&gt;14</title>
<path fill="none" stroke="grey" stroke-width="2" d="M628.67,-945.3C639.74,-935.83 652.46,-923.45 661.38,-910.25 687.89,-870.96 700.38,-858.39 700.38,-811 700.38,-811 700.38,-811 700.38,-737 700.38,-697.23 686.62,-653.17 675.88,-624.83"/>
<polygon fill="grey" stroke="grey" stroke-width="2" points="679.14,-623.01 672.22,-614.99 672.63,-625.58 679.14,-623.01"/>
</g>
<!-- 15 -->
<g id="node16" class="node">
<title>15</title>
<path fill="none" stroke="#56a2d8" stroke-width="2" d="M531.75,-684C531.75,-684 485,-684 485,-684 479,-684 473,-678 473,-672 473,-672 473,-660 473,-660 473,-654 479,-648 485,-648 485,-648 531.75,-648 531.75,-648 537.75,-648 543.75,-654 543.75,-660 543.75,-660 543.75,-672 543.75,-672 543.75,-678 537.75,-684 531.75,-684"/>
<text text-anchor="middle" x="508.38" y="-662.88" font-family="sans" font-size="10.00">ApplyBQSR</text>
</g>
<!-- 11&#45;&gt;15 -->
<g id="edge31" class="edge">
<title>11&#45;&gt;15</title>
<path fill="none" stroke="grey" stroke-width="2" d="M606.51,-945.48C608.4,-903.47 608.54,-795.9 567.38,-720 561.89,-709.89 553.7,-700.73 545.16,-692.98"/>
<polygon fill="grey" stroke="grey" stroke-width="2" points="547.39,-689.61 537.48,-685.86 542.89,-694.97 547.39,-689.61"/>
</g>
<!-- 16 -->
<g id="node17" class="node">
<title>16</title>
<path fill="none" stroke="#56d863" stroke-width="2" d="M491.88,-828C491.88,-828 442.88,-828 442.88,-828 436.88,-828 430.88,-822 430.88,-816 430.88,-816 430.88,-804 430.88,-804 430.88,-798 436.88,-792 442.88,-792 442.88,-792 491.88,-792 491.88,-792 497.88,-792 503.88,-798 503.88,-804 503.88,-804 503.88,-816 503.88,-816 503.88,-822 497.88,-828 491.88,-828"/>
<text text-anchor="middle" x="467.38" y="-806.88" font-family="sans" font-size="10.00">bwa_mem2</text>
</g>
<!-- 11&#45;&gt;16 -->
<g id="edge34" class="edge">
<title>11&#45;&gt;16</title>
<path fill="none" stroke="grey" stroke-width="2" d="M576.99,-945.34C563.24,-935.88 547.01,-923.5 534.38,-910.25 514.01,-888.9 495.63,-860.71 483.3,-839.84"/>
<polygon fill="grey" stroke="grey" stroke-width="2" points="485.96,-837.7 477.93,-830.79 479.89,-841.2 485.96,-837.7"/>
</g>
<!-- 18 -->
<g id="node19" class="node">
<title>18</title>
<path fill="none" stroke="#56d8c9" stroke-width="2" d="M546,-756C546,-756 470.75,-756 470.75,-756 464.75,-756 458.75,-750 458.75,-744 458.75,-744 458.75,-732 458.75,-732 458.75,-726 464.75,-720 470.75,-720 470.75,-720 546,-720 546,-720 552,-720 558,-726 558,-732 558,-732 558,-744 558,-744 558,-750 552,-756 546,-756"/>
<text text-anchor="middle" x="508.38" y="-734.88" font-family="sans" font-size="10.00">BaseRecalibrator</text>
</g>
<!-- 11&#45;&gt;18 -->
<g id="edge37" class="edge">
<title>11&#45;&gt;18</title>
<path fill="none" stroke="grey" stroke-width="2" d="M593.15,-945.61C586.49,-935.53 578.4,-922.5 572.38,-910.25 548.89,-862.52 528.73,-803.89 517.6,-769.09"/>
<polygon fill="grey" stroke="grey" stroke-width="2" points="520.13,-767.48 513.79,-758.99 513.45,-769.58 520.13,-767.48"/>
</g>
<!-- 11&#45;&gt;19 -->
<g id="edge38" class="edge">
<title>11&#45;&gt;19</title>
<path fill="none" stroke="grey" stroke-width="2" d="M657.1,-961.7C703.03,-957.86 769.76,-945.93 815.38,-910.25 854.76,-879.44 868.38,-861.01 868.38,-811 868.38,-811 868.38,-811 868.38,-449 868.38,-410.06 860.55,-365.75 854.45,-337.14"/>
<polygon fill="grey" stroke="grey" stroke-width="2" points="857.3,-335.82 851.73,-326.81 850.47,-337.33 857.3,-335.82"/>
</g>
<!-- 20 -->
<g id="node21" class="node">
<title>20</title>
<path fill="none" stroke="#56b9d8" stroke-width="2" d="M501.75,-252C501.75,-252 455,-252 455,-252 449,-252 443,-246 443,-240 443,-240 443,-228 443,-228 443,-222 449,-216 455,-216 455,-216 501.75,-216 501.75,-216 507.75,-216 513.75,-222 513.75,-228 513.75,-228 513.75,-240 513.75,-240 513.75,-246 507.75,-252 501.75,-252"/>
<text text-anchor="middle" x="478.38" y="-230.88" font-family="sans" font-size="10.00">ApplyVQSR</text>
</g>
<!-- 11&#45;&gt;20 -->
<g id="edge42" class="edge">
<title>11&#45;&gt;20</title>
<path fill="none" stroke="grey" stroke-width="2" d="M656.92,-947.79C678.7,-939.34 703.17,-927.09 721.38,-910.25 758.39,-876 776.38,-861.43 776.38,-811 776.38,-811 776.38,-811 776.38,-593 776.38,-517.67 766.27,-493.93 723.38,-432 669.7,-354.51 576.93,-291.91 522.25,-259.38"/>
<polygon fill="grey" stroke="grey" stroke-width="2" points="523.59,-255.93 513.19,-253.9 520.05,-261.97 523.59,-255.93"/>
</g>
<!-- 11&#45;&gt;21 -->
<g id="edge44" class="edge">
<title>11&#45;&gt;21</title>
<path fill="none" stroke="grey" stroke-width="2" d="M553.65,-961.15C438.4,-955.95 168.47,-940.61 141.38,-910.25 67.4,-827.35 304.3,-504.97 379.34,-407.24"/>
<polygon fill="grey" stroke="grey" stroke-width="2" points="382.92,-409.02 386.26,-398.97 377.38,-404.74 382.92,-409.02"/>
</g>
<!-- 22 -->
<g id="node23" class="node">
<title>22</title>
<path fill="none" stroke="#d8a456" stroke-width="2" d="M521.25,-324C521.25,-324 435.5,-324 435.5,-324 429.5,-324 423.5,-318 423.5,-312 423.5,-312 423.5,-300 423.5,-300 423.5,-294 429.5,-288 435.5,-288 435.5,-288 521.25,-288 521.25,-288 527.25,-288 533.25,-294 533.25,-300 533.25,-300 533.25,-312 533.25,-312 533.25,-318 527.25,-324 521.25,-324"/>
<text text-anchor="middle" x="478.38" y="-302.88" font-family="sans" font-size="10.00">VariantRecalibrator</text>
</g>
<!-- 11&#45;&gt;22 -->
<g id="edge45" class="edge">
<title>11&#45;&gt;22</title>
<path fill="none" stroke="grey" stroke-width="2" d="M607.86,-945.64C611.81,-914.47 618.33,-847.65 610.38,-792 600.62,-723.7 599.15,-698.72 552.38,-648 531.81,-625.7 511.83,-636.82 494.38,-612 471.11,-578.91 475.38,-563.45 475.38,-523 475.38,-523 475.38,-523 475.38,-449 475.38,-410.64 476.48,-366.48 477.35,-337.72"/>
<polygon fill="grey" stroke="grey" stroke-width="2" points="480.94,-338.04 477.75,-327.93 473.94,-337.82 480.94,-338.04"/>
</g>
<!-- 12&#45;&gt;9 -->
<g id="edge24" class="edge">
<title>12&#45;&gt;9</title>
<path fill="none" stroke="grey" stroke-width="2" d="M378.58,-868.32C372.37,-859.68 364.76,-849.1 357.78,-839.38"/>
<polygon fill="grey" stroke="grey" stroke-width="2" points="359.95,-837.01 351.27,-830.94 354.26,-841.1 359.95,-837.01"/>
</g>
<!-- 12&#45;&gt;16 -->
<g id="edge35" class="edge">
<title>12&#45;&gt;16</title>
<path fill="none" stroke="grey" stroke-width="2" d="M409.39,-868.32C418.59,-859.22 429.99,-847.95 440.24,-837.82"/>
<polygon fill="grey" stroke="grey" stroke-width="2" points="442.58,-840.46 447.23,-830.94 437.66,-835.48 442.58,-840.46"/>
</g>
<!-- 13&#45;&gt;8 -->
<g id="edge21" class="edge">
<title>13&#45;&gt;8</title>
<path fill="none" stroke="grey" stroke-width="2" d="M294.06,-719.34C302.77,-711.52 313.19,-702.16 322.81,-693.53"/>
<polygon fill="grey" stroke="grey" stroke-width="2" points="325.32,-696.19 330.43,-686.9 320.65,-690.98 325.32,-696.19"/>
</g>
<!-- 14&#45;&gt;6 -->
<g id="edge16" class="edge">
<title>14&#45;&gt;6</title>
<path fill="none" stroke="grey" stroke-width="2" d="M661.1,-575.34C660.26,-568.75 659.27,-561.08 658.32,-553.67"/>
<polygon fill="grey" stroke="grey" stroke-width="2" points="661.42,-553.37 656.68,-543.9 654.48,-554.27 661.42,-553.37"/>
</g>
<!-- 15&#45;&gt;14 -->
<g id="edge28" class="edge">
<title>15&#45;&gt;14</title>
<path fill="none" stroke="grey" stroke-width="2" d="M544.72,-648.59C564.72,-639.55 589.89,-628.19 611.88,-618.25"/>
<polygon fill="grey" stroke="grey" stroke-width="2" points="614.06,-621.21 621.73,-613.9 611.17,-614.83 614.06,-621.21"/>
</g>
<!-- 27 -->
<g id="node28" class="node">
<title>27</title>
<path fill="none" stroke="#5673d8" stroke-width="2" d="M389.5,-612C389.5,-612 323.25,-612 323.25,-612 317.25,-612 311.25,-606 311.25,-600 311.25,-600 311.25,-588 311.25,-588 311.25,-582 317.25,-576 323.25,-576 323.25,-576 389.5,-576 389.5,-576 395.5,-576 401.5,-582 401.5,-588 401.5,-588 401.5,-600 401.5,-600 401.5,-606 395.5,-612 389.5,-612"/>
<text text-anchor="middle" x="356.38" y="-590.88" font-family="sans" font-size="10.00">samtools_stats</text>
</g>
<!-- 15&#45;&gt;27 -->
<g id="edge52" class="edge">
<title>15&#45;&gt;27</title>
<path fill="none" stroke="grey" stroke-width="2" d="M472.35,-648.41C452.8,-639.41 428.31,-628.13 406.87,-618.26"/>
<polygon fill="grey" stroke="grey" stroke-width="2" points="407.88,-614.95 397.33,-613.94 404.95,-621.3 407.88,-614.95"/>
</g>
<!-- 16&#45;&gt;15 -->
<g id="edge30" class="edge">
<title>16&#45;&gt;15</title>
<path fill="none" stroke="grey" stroke-width="2" d="M457.67,-791.25C448.95,-772.77 438.97,-743.32 449.38,-720 453.93,-709.79 461.53,-700.72 469.79,-693.1"/>
<polygon fill="grey" stroke="grey" stroke-width="2" points="472.23,-694.94 477.64,-685.84 467.73,-689.58 472.23,-694.94"/>
</g>
<!-- 16&#45;&gt;18 -->
<g id="edge36" class="edge">
<title>16&#45;&gt;18</title>
<path fill="none" stroke="grey" stroke-width="2" d="M477.72,-791.34C481.87,-784.26 486.75,-775.92 491.39,-768"/>
<polygon fill="grey" stroke="grey" stroke-width="2" points="494.86,-769.3 496.89,-758.9 488.82,-765.76 494.86,-769.3"/>
</g>
<!-- 17 -->
<g id="node18" class="node">
<title>17</title>
<path fill="none" stroke="#97d856" stroke-width="2" stroke-dasharray="5,2" d="M232.75,-910.25C232.75,-910.25 162,-910.25 162,-910.25 156,-910.25 150,-904.25 150,-898.25 150,-898.25 150,-876 150,-876 150,-870 156,-864 162,-864 162,-864 232.75,-864 232.75,-864 238.75,-864 244.75,-870 244.75,-876 244.75,-876 244.75,-898.25 244.75,-898.25 244.75,-904.25 238.75,-910.25 232.75,-910.25"/>
<text text-anchor="middle" x="197.38" y="-896.75" font-family="sans" font-size="10.00">fastp_se</text>
<text text-anchor="middle" x="197.38" y="-884" font-family="sans" font-size="10.00">s: SRR24443169</text>
<text text-anchor="middle" x="197.38" y="-871.25" font-family="sans" font-size="10.00">u: </text>
</g>
<!-- 17&#45;&gt;16 -->
<g id="edge33" class="edge">
<title>17&#45;&gt;16</title>
<path fill="none" stroke="grey" stroke-width="2" d="M245.65,-872.69C294.1,-859.21 368.41,-838.54 417.44,-824.89"/>
<polygon fill="grey" stroke="grey" stroke-width="2" points="419.25,-827.47 427.95,-821.41 417.38,-820.72 419.25,-827.47"/>
</g>
<!-- 17&#45;&gt;24 -->
<g id="edge48" class="edge">
<title>17&#45;&gt;24</title>
<path fill="none" stroke="grey" stroke-width="2" d="M154.61,-863.18C137.88,-854.2 118.7,-843.91 101.82,-834.85"/>
<polygon fill="grey" stroke="grey" stroke-width="2" points="103.02,-831.45 92.55,-829.8 99.71,-837.62 103.02,-831.45"/>
</g>
<!-- 18&#45;&gt;15 -->
<g id="edge32" class="edge">
<title>18&#45;&gt;15</title>
<path fill="none" stroke="grey" stroke-width="2" d="M508.38,-719.34C508.38,-712.75 508.38,-705.08 508.38,-697.67"/>
<polygon fill="grey" stroke="grey" stroke-width="2" points="511.88,-697.9 508.38,-687.9 504.88,-697.9 511.88,-697.9"/>
</g>
<!-- 19&#45;&gt;3 -->
<g id="edge9" class="edge">
<title>19&#45;&gt;3</title>
<path fill="none" stroke="grey" stroke-width="2" d="M836.78,-287.34C832.53,-280.26 827.53,-271.92 822.78,-264"/>
<polygon fill="grey" stroke="grey" stroke-width="2" points="825.26,-261.68 817.12,-254.9 819.26,-265.28 825.26,-261.68"/>
</g>
<!-- 20&#45;&gt;2 -->
<g id="edge7" class="edge">
<title>20&#45;&gt;2</title>
<path fill="none" stroke="grey" stroke-width="2" d="M478.38,-215.34C478.38,-208.75 478.38,-201.08 478.38,-193.67"/>
<polygon fill="grey" stroke="grey" stroke-width="2" points="481.88,-193.9 478.38,-183.9 474.88,-193.9 481.88,-193.9"/>
</g>
<!-- 21&#45;&gt;20 -->
<g id="edge40" class="edge">
<title>21&#45;&gt;20</title>
<path fill="none" stroke="grey" stroke-width="2" d="M400.34,-359.08C400.04,-340.2 401.9,-310.19 414.38,-288 420.24,-277.56 429.03,-268.32 438.23,-260.6"/>
<polygon fill="grey" stroke="grey" stroke-width="2" points="440.49,-262.73 446.25,-253.83 436.2,-257.19 440.49,-262.73"/>
</g>
<!-- 21&#45;&gt;22 -->
<g id="edge46" class="edge">
<title>21&#45;&gt;22</title>
<path fill="none" stroke="grey" stroke-width="2" d="M420.81,-359.34C429.4,-351.52 439.7,-342.16 449.19,-333.53"/>
<polygon fill="grey" stroke="grey" stroke-width="2" points="451.64,-336.22 456.68,-326.9 446.93,-331.04 451.64,-336.22"/>
</g>
<!-- 22&#45;&gt;20 -->
<g id="edge41" class="edge">
<title>22&#45;&gt;20</title>
<path fill="none" stroke="grey" stroke-width="2" d="M478.38,-287.34C478.38,-280.75 478.38,-273.08 478.38,-265.67"/>
<polygon fill="grey" stroke="grey" stroke-width="2" points="481.88,-265.9 478.38,-255.9 474.88,-265.9 481.88,-265.9"/>
</g>
<!-- 23 -->
<g id="node24" class="node">
<title>23</title>
<path fill="none" stroke="#568ad8" stroke-width="2" stroke-dasharray="5,2" d="M336.75,-180C336.75,-180 272,-180 272,-180 266,-180 260,-174 260,-168 260,-168 260,-156 260,-156 260,-150 266,-144 272,-144 272,-144 336.75,-144 336.75,-144 342.75,-144 348.75,-150 348.75,-156 348.75,-156 348.75,-168 348.75,-168 348.75,-174 342.75,-180 336.75,-180"/>
<text text-anchor="middle" x="304.38" y="-158.88" font-family="sans" font-size="10.00">get_vep_cache</text>
</g>
<!-- 23&#45;&gt;1 -->
<g id="edge5" class="edge">
<title>23&#45;&gt;1</title>
<path fill="none" stroke="grey" stroke-width="2" d="M304.38,-143.34C304.38,-136.75 304.38,-129.08 304.38,-121.67"/>
<polygon fill="grey" stroke="grey" stroke-width="2" points="307.88,-121.9 304.38,-111.9 300.88,-121.9 307.88,-121.9"/>
</g>
<!-- 24&#45;&gt;0 -->
<g id="edge2" class="edge">
<title>24&#45;&gt;0</title>
<path fill="none" stroke="grey" stroke-width="2" d="M57.38,-791.07C57.38,-764.13 57.38,-711.62 57.38,-667 57.38,-667 57.38,-667 57.38,-161 57.38,-117.06 86.01,-73.56 108.13,-46.52"/>
<polygon fill="grey" stroke="grey" stroke-width="2" points="111.7,-48.54 115.51,-38.65 106.37,-44.01 111.7,-48.54"/>
</g>
<!-- 25 -->
<g id="node26" class="node">
<title>25</title>
<path fill="none" stroke="#56d87b" stroke-width="2" d="M160.5,-540C160.5,-540 106.25,-540 106.25,-540 100.25,-540 94.25,-534 94.25,-528 94.25,-528 94.25,-516 94.25,-516 94.25,-510 100.25,-504 106.25,-504 106.25,-504 160.5,-504 160.5,-504 166.5,-504 172.5,-510 172.5,-516 172.5,-516 172.5,-528 172.5,-528 172.5,-534 166.5,-540 160.5,-540"/>
<text text-anchor="middle" x="133.38" y="-518.88" font-family="sans" font-size="10.00">bwa_multiqc</text>
</g>
<!-- 25&#45;&gt;0 -->
<g id="edge3" class="edge">
<title>25&#45;&gt;0</title>
<path fill="none" stroke="grey" stroke-width="2" d="M133.38,-503.07C133.38,-476.13 133.38,-423.62 133.38,-379 133.38,-379 133.38,-379 133.38,-161 133.38,-122.65 133.38,-78.48 133.38,-49.72"/>
<polygon fill="grey" stroke="grey" stroke-width="2" points="136.88,-49.93 133.38,-39.93 129.88,-49.93 136.88,-49.93"/>
</g>
<!-- 26&#45;&gt;25 -->
<g id="edge49" class="edge">
<title>26&#45;&gt;25</title>
<path fill="none" stroke="grey" stroke-width="2" d="M131.13,-575.34C131.41,-568.75 131.74,-561.08 132.06,-553.67"/>
<polygon fill="grey" stroke="grey" stroke-width="2" points="135.68,-554.04 132.61,-543.9 128.68,-553.74 135.68,-554.04"/>
</g>
<!-- 27&#45;&gt;25 -->
<g id="edge50" class="edge">
<title>27&#45;&gt;25</title>
<path fill="none" stroke="grey" stroke-width="2" d="M310.44,-578.58C274.13,-567.18 223.42,-551.27 185.58,-539.39"/>
<polygon fill="grey" stroke="grey" stroke-width="2" points="185.86,-535.18 175.27,-535.52 183.77,-541.86 185.86,-535.18"/>
</g>
</g>
</svg>
